<?xml version="1.0" encoding="UTF-8"?>
<svg id="Camada_1" data-name="Camada 1" xmlns="http://www.w3.org/2000/svg" viewBox="0 0 232.27 236.97">
  <defs>
    <style>
      .cls-1 {
        fill: #0098c9;
      }

      .cls-2 {
        fill: #153f8a;
      }
    </style>
  </defs>
  <path class="cls-2" d="M221.32,136.44c.57-4.42,.86-8.93,.86-13.5,0-5.78-.48-11.45-1.38-16.98h-66.5l-15.61,15.61-6.38,6.38-14.76,14.76-15.72-15.72-5.42-5.42-15.61-15.61H13.34c-.9,5.53-1.38,11.2-1.38,16.98,0,4.57,.3,9.08,.86,13.5H81.54l-27.07,27.07-21.89,21.89c6.08,8.2,13.32,15.49,21.48,21.62l21.86-21.86,25.9-25.9v67.68c4.98,.73,10.07,1.11,15.24,1.11s10.26-.38,15.24-1.11v-68.65l26.49,26.49,21.82,21.82c8.12-6.18,15.32-13.52,21.34-21.76l-21.92-21.92-26.48-26.48h67.76Z"/>
  <path class="cls-2" d="M117.07,17.83c-18.6,0-36.08,4.86-51.25,13.37l22.77,22.77c8.78-3.64,18.4-5.66,28.48-5.66s20.2,2.12,29.16,5.94l22.7-22.7c-15.31-8.72-33.02-13.72-51.87-13.72Z"/>
  <path class="cls-1" d="M193.13,50.46c-4.31-4.52-9.03-8.66-14.08-12.36l-21.92,21.92-39.58,39.58-39.96-39.96-21.95-21.95c-5.08,3.67-9.82,7.78-14.16,12.28-2.74,2.83-5.32,5.82-7.72,8.95l21.81,21.81,25.23,25.23,15.61,15.61,5.42,5.42,15.72,15.72,14.76-14.76,6.38-6.38,15.61-15.61,24.66-24.66,21.83-21.83c-2.39-3.14-4.95-6.15-7.67-9.01Z"/>
</svg>