<?xml version="1.0" standalone="no"?>
<!DOCTYPE svg PUBLIC "-//W3C//DTD SVG 20010904//EN"
 "http://www.w3.org/TR/2001/REC-SVG-20010904/DTD/svg10.dtd">
<svg version="1.0" xmlns="http://www.w3.org/2000/svg"
 width="2736.000000pt" height="1048.000000pt" viewBox="0 0 2736.000000 1048.000000"
 preserveAspectRatio="xMidYMid meet">

<g transform="translate(0.000000,1048.000000) scale(0.100000,-0.100000)"
fill="#000000" stroke="none">
<path d="M3930 7658 c-136 -109 -369 -339 -464 -457 l-67 -85 1273 -1273 1273
-1273 1262 1262 c980 980 1260 1265 1253 1277 -4 9 -51 66 -103 126 -121 141
-304 319 -436 424 l-104 83 -931 -931 c-512 -512 -936 -931 -941 -931 -6 0
-431 421 -945 935 -514 514 -939 935 -945 935 -5 0 -62 -42 -125 -92z"/>
</g>
</svg>
