<svg version="1.1" id="Layer_1" xmlns="http://www.w3.org/2000/svg" xmlns:xlink="http://www.w3.org/1999/xlink" x="0px" y="0px"
	 width="100%" viewBox="0 0 2231 705" enable-background="new 0 0 2231 705" xml:space="preserve">
<path fill="#FFFFFF" opacity="1.000000" stroke="none" 
	d="
M1437.000000,706.000000 
	C958.000000,706.000000 479.500000,706.000000 1.000000,706.000000 
	C1.000000,471.000000 1.000000,236.000000 1.000000,1.000000 
	C744.666687,1.000000 1488.333374,1.000000 2232.000000,1.000000 
	C2232.000000,236.000000 2232.000000,471.000000 2232.000000,706.000000 
	C1967.166626,706.000000 1702.333374,706.000000 1437.000000,706.000000 
M216.082779,271.537109 
	C148.473099,271.537109 80.863419,271.537109 13.383751,271.537109 
	C8.044003,290.546753 7.212313,350.647980 12.183610,364.728546 
	C80.982132,364.728546 149.986359,364.728546 220.065735,364.728546 
	C170.014648,414.774597 120.791267,463.993011 71.642395,513.136902 
	C82.318962,531.022034 124.676956,573.293213 138.971619,579.624634 
	C186.489029,532.106445 234.434097,484.160583 282.303833,436.290039 
	C282.303833,503.789337 282.303833,571.746460 282.303833,640.015930 
	C313.377533,644.368774 344.126007,644.427185 375.406189,639.947937 
	C375.406189,570.472046 375.406189,501.491028 375.406189,432.510010 
	C375.782440,432.316376 376.158691,432.122742 376.534943,431.929108 
	C425.158478,480.553589 473.782043,529.178040 522.401978,577.798889 
	C543.603821,562.785645 577.377258,528.096619 587.599609,510.339874 
	C539.186218,461.927063 490.513519,413.254944 441.622498,364.364502 
	C509.619720,364.364502 577.676331,364.364502 645.759766,364.364502 
	C646.081177,362.766541 646.390076,361.647522 646.523132,360.507965 
	C649.883789,331.735474 649.296509,303.028381 644.813721,274.421814 
	C644.638123,273.301056 642.561951,271.746552 641.284912,271.659271 
	C636.307373,271.319092 631.295105,271.473663 626.295715,271.471558 
	C565.135132,271.446075 503.974518,271.425415 443.262634,270.813873 
	C444.514160,269.481567 445.730530,268.114105 447.022278,266.821991 
	C491.079529,222.751953 535.136780,178.681870 579.240601,134.658401 
	C580.630432,133.271057 582.511292,132.375534 584.301270,131.156738 
	C564.569580,105.119789 542.646423,83.587341 517.058167,64.949753 
	C454.642792,127.367310 392.493317,189.518951 329.913818,252.100632 
	C267.141541,189.325317 204.503098,126.683846 141.904556,64.082275 
	C122.914955,75.780678 85.503380,112.156677 74.785339,129.736664 
	C76.162079,130.717545 78.004761,131.679825 79.408752,133.081512 
	C124.098000,177.697617 168.749191,222.351837 213.376801,267.029633 
	C214.743210,268.397552 215.797318,270.077454 216.082779,271.537109 
M1750.548462,373.980255 
	C1735.184326,323.142731 1719.820068,272.305176 1704.288208,220.913177 
	C1704.783691,220.960373 1704.133789,220.845520 1703.483887,220.846207 
	C1701.319092,220.848511 1699.148193,220.797104 1696.990356,220.934509 
	C1667.451294,222.815643 1639.301880,230.114334 1612.394775,242.430099 
	C1609.138916,243.920349 1608.429688,245.355301 1609.545288,248.780045 
	C1621.634277,285.894409 1632.774414,323.338196 1645.711548,360.151581 
	C1669.740479,428.526825 1698.295898,495.064270 1729.822510,560.325989 
	C1730.718140,562.180115 1731.291382,565.103577 1730.457642,566.730591 
	C1725.246704,576.900574 1720.093994,587.163452 1713.956177,596.779175 
	C1706.539795,608.398254 1695.415894,615.237610 1681.815063,617.660217 
	C1676.633545,618.583191 1671.334106,618.844482 1666.062988,619.410034 
	C1666.062988,647.822998 1666.062988,676.084351 1666.062988,705.291138 
	C1675.243286,704.852051 1684.186890,704.715210 1693.075073,703.941162 
	C1714.134521,702.107117 1733.858032,696.148010 1751.225708,683.687134 
	C1768.728271,671.129272 1781.648560,654.499878 1792.720215,636.291321 
	C1807.612061,611.800354 1818.775879,585.493042 1830.124512,559.279602 
	C1875.935181,453.464905 1912.840576,344.504913 1945.016602,233.875900 
	C1946.202148,229.799530 1947.309937,225.700500 1948.542114,221.296799 
	C1914.189697,218.278198 1881.489868,222.599426 1849.476929,233.144226 
	C1844.958984,234.632385 1843.112915,237.068069 1841.873657,241.536224 
	C1826.067261,298.532410 1810.147949,355.498169 1793.961426,412.387482 
	C1789.815186,426.960144 1784.636841,441.239136 1779.932495,455.653046 
	C1779.500122,455.674164 1779.067749,455.695312 1778.635376,455.716431 
	C1769.368164,428.718292 1760.100830,401.720123 1750.548462,373.980255 
M1966.593872,277.126038 
	C1955.086670,301.409393 1954.465088,326.684601 1960.779541,352.204590 
	C1967.795410,380.559479 1986.740723,399.378967 2012.253540,411.713806 
	C2029.122559,419.869537 2046.785767,426.366058 2063.906006,434.024536 
	C2074.042236,438.558899 2084.034180,443.522247 2093.676758,449.019165 
	C2100.857666,453.112549 2105.989502,459.284210 2105.921387,468.292786 
	C2105.826416,480.838562 2099.427002,487.681824 2085.091309,489.999329 
	C2060.250732,494.015076 2035.582153,491.987183 2011.288330,486.263428 
	C1995.368042,482.512543 1979.758789,477.441406 1963.614502,472.849030 
	C1958.650513,497.423126 1953.564087,522.603210 1948.483887,547.752441 
	C1949.774048,548.344971 1950.504028,548.735535 1951.272095,549.024963 
	C1979.796387,559.776550 2009.155396,566.392883 2039.722168,567.564270 
	C2067.114258,568.613892 2094.333252,567.893127 2120.995605,560.820679 
	C2140.707764,555.591797 2158.871582,547.217834 2173.405029,532.405151 
	C2191.354980,514.110229 2196.771484,491.372101 2196.906494,466.564850 
	C2197.107666,429.584717 2182.565186,400.825470 2149.616943,383.174683 
	C2131.374023,373.401703 2111.981689,365.789276 2093.223877,356.955750 
	C2080.932861,351.167633 2068.178223,345.976746 2056.839355,338.648804 
	C2041.807251,328.933960 2044.433960,308.258118 2060.803711,300.956635 
	C2063.809814,299.615784 2067.039795,298.555908 2070.275635,297.986420 
	C2091.093506,294.322693 2111.758057,296.028503 2132.183105,300.698059 
	C2143.766602,303.346283 2155.150146,306.870270 2166.879883,310.069733 
	C2172.152588,285.987549 2177.407227,261.987640 2182.735107,237.652008 
	C2180.093994,236.696838 2177.839111,235.583282 2175.454590,235.065903 
	C2155.823730,230.806198 2136.329102,225.496216 2116.481934,222.758789 
	C2089.669189,219.060532 2062.635986,219.309311 2036.113892,226.062119 
	C2006.394409,233.628983 1981.863037,248.501892 1966.593872,277.126038 
M1432.057129,313.951447 
	C1434.086182,307.664124 1438.281860,302.977173 1444.402832,301.135406 
	C1451.968018,298.859131 1459.830078,296.850128 1467.669189,296.337585 
	C1491.874390,294.754944 1515.359619,299.202271 1538.367188,306.499023 
	C1542.385620,307.773468 1546.417725,309.005188 1550.674927,310.328552 
	C1556.052368,285.757721 1561.299072,261.783966 1566.565063,237.722443 
	C1564.809937,237.021530 1563.619507,236.479492 1562.386597,236.063690 
	C1541.976074,229.180756 1521.023193,224.633408 1499.627686,222.442444 
	C1472.849243,219.700241 1446.082153,219.422714 1419.728271,226.079651 
	C1394.332397,232.494629 1372.115601,244.365128 1356.956177,266.444946 
	C1337.906860,294.190582 1337.127319,324.812714 1345.830933,355.948792 
	C1353.146484,382.119843 1371.489990,399.548126 1395.319946,411.061554 
	C1412.484985,419.354828 1430.475220,425.925171 1447.791138,433.926605 
	C1459.348145,439.266907 1470.754517,445.159546 1481.496460,451.961029 
	C1489.186768,456.830353 1491.153442,465.039062 1489.062012,474.081085 
	C1487.134644,482.413269 1481.506348,486.764221 1473.719116,488.653503 
	C1469.051025,489.786102 1464.246582,490.561340 1459.458618,490.961395 
	C1432.451172,493.217896 1406.003662,489.780640 1380.045166,482.403076 
	C1369.246094,479.333893 1358.633911,475.607635 1347.578491,472.065430 
	C1342.496338,497.221039 1337.439941,522.249084 1332.316162,547.611023 
	C1335.596436,548.854675 1338.495361,550.012512 1341.433838,551.058838 
	C1370.333374,561.349731 1400.086426,567.013855 1430.791382,567.509399 
	C1458.675415,567.959351 1486.407593,566.903015 1513.187866,558.010986 
	C1535.151611,550.718201 1554.496582,539.552979 1567.330688,519.426697 
	C1578.507812,501.898926 1581.001953,482.415985 1580.603394,462.075317 
	C1579.944092,428.426880 1566.319946,402.049683 1536.995361,385.197754 
	C1521.075928,376.049286 1504.020020,368.862549 1487.397949,360.956696 
	C1472.281372,353.766754 1456.720947,347.428497 1441.999390,339.517609 
	C1432.050049,334.171082 1429.573486,325.765015 1432.057129,313.951447 
M886.166504,312.500031 
	C886.166504,232.428131 886.166504,152.356232 886.166504,71.978516 
	C853.322632,71.874336 821.569824,75.318893 790.547729,84.645882 
	C786.625732,85.825066 787.534119,88.435631 787.533691,90.899933 
	C787.506287,247.865356 787.509033,404.830780 787.509033,561.796204 
	C787.509033,563.560181 787.508972,565.324219 787.508972,567.175720 
	C820.736450,567.175720 853.280518,567.175720 886.166504,567.175720 
	C886.166504,482.407227 886.166504,397.953644 886.166504,312.500031 
M936.163025,479.499969 
	C936.163025,508.630157 936.163025,537.760315 936.163025,567.187988 
	C969.366394,567.187988 1002.236572,567.187988 1035.602173,567.187988 
	C1035.602173,480.654144 1035.602173,394.444580 1035.602173,308.083771 
	C1063.495972,302.132599 1091.010254,301.082489 1119.081055,306.795898 
	C1124.300415,279.767426 1129.450317,253.099304 1134.803833,225.376602 
	C1119.993896,223.876251 1105.833130,221.794113 1091.605469,221.116226 
	C1039.556763,218.636444 989.352112,228.543686 940.093933,244.510864 
	C936.558960,245.656738 936.103271,247.428146 936.106323,250.594543 
	C936.179199,326.562927 936.163025,402.531464 936.163025,479.499969 
M1199.351562,229.856369 
	C1194.283081,231.259003 1189.214600,232.661636 1184.346680,234.008743 
	C1184.346680,345.412811 1184.346680,456.164124 1184.346680,567.129150 
	C1217.227783,567.129150 1249.922607,567.129150 1282.507690,567.129150 
	C1282.507690,451.370636 1282.507690,335.999634 1282.507690,220.401886 
	C1254.494019,220.539612 1227.067627,222.785217 1199.351562,229.856369 
M274.478027,8.010279 
	C238.588150,14.294479 204.700134,26.106077 172.582993,44.250523 
	C194.818756,66.466164 216.559616,88.084602 238.134399,109.867516 
	C240.955429,112.715759 243.205246,113.356964 247.093399,111.880554 
	C302.544617,90.824478 357.941864,91.215492 413.137054,112.921188 
	C416.356476,114.187241 418.348358,113.992828 420.911407,111.398582 
	C441.642303,90.415276 462.557404,69.613930 483.407288,48.748085 
	C484.434540,47.720055 485.378204,46.608536 486.764618,45.095074 
	C480.377838,41.781971 474.431091,38.497368 468.318634,35.557232 
	C406.912506,6.020426 342.553101,-2.996679 274.478027,8.010279 
M1243.307373,167.978943 
	C1244.598022,167.671249 1245.893066,167.380936 1247.178711,167.053329 
	C1281.576050,158.287674 1295.296875,114.713097 1271.778198,88.017326 
	C1259.672729,74.276619 1243.877930,69.249832 1225.866821,71.865448 
	C1208.205078,74.430321 1194.362427,83.151657 1187.870850,100.180397 
	C1181.092041,117.962280 1181.925293,135.830399 1194.494751,151.058136 
	C1206.806274,165.973511 1223.465088,170.834274 1243.307373,167.978943 
z"/>
<path fill="#0E3F8F" opacity="1.000000" stroke="none" 
	d="
M442.813904,271.403503 
	C503.974518,271.425415 565.135132,271.446075 626.295715,271.471558 
	C631.295105,271.473663 636.307373,271.319092 641.284912,271.659271 
	C642.561951,271.746552 644.638123,273.301056 644.813721,274.421814 
	C649.296509,303.028381 649.883789,331.735474 646.523132,360.507965 
	C646.390076,361.647522 646.081177,362.766541 645.759766,364.364502 
	C577.676331,364.364502 509.619720,364.364502 441.622498,364.364502 
	C490.513519,413.254944 539.186218,461.927063 587.599609,510.339874 
	C577.377258,528.096619 543.603821,562.785645 522.401978,577.798889 
	C473.782043,529.178040 425.158478,480.553589 376.534943,431.929108 
	C376.158691,432.122742 375.782440,432.316376 375.406189,432.510010 
	C375.406189,501.491028 375.406189,570.472046 375.406189,639.947937 
	C344.126007,644.427185 313.377533,644.368774 282.303833,640.015930 
	C282.303833,571.746460 282.303833,503.789337 282.303833,436.290039 
	C234.434097,484.160583 186.489029,532.106445 138.971619,579.624634 
	C124.676956,573.293213 82.318962,531.022034 71.642395,513.136902 
	C120.791267,463.993011 170.014648,414.774597 220.065735,364.728546 
	C149.986359,364.728546 80.982132,364.728546 12.183610,364.728546 
	C7.212313,350.647980 8.044003,290.546753 13.383751,271.537109 
	C80.863419,271.537109 148.473099,271.537109 216.839142,271.735413 
	C219.114899,273.201294 220.743332,274.359741 222.137726,275.752502 
	C256.678436,310.252563 291.192932,344.778839 325.720093,379.292480 
	C327.088623,380.660461 328.536133,381.949432 330.940918,384.209442 
	C332.430237,382.151825 333.412140,380.331604 334.812164,378.928619 
	C369.178284,344.489685 403.585419,310.091614 438.002716,275.703766 
	C439.521973,274.185822 441.206421,272.833160 442.813904,271.403503 
z"/>
<path fill="#212229" opacity="1.000000" stroke="none" 
	d="
M1750.691040,374.351105 
	C1760.100830,401.720123 1769.368164,428.718292 1778.635376,455.716431 
	C1779.067749,455.695312 1779.500122,455.674164 1779.932495,455.653046 
	C1784.636841,441.239136 1789.815186,426.960144 1793.961426,412.387482 
	C1810.147949,355.498169 1826.067261,298.532410 1841.873657,241.536224 
	C1843.112915,237.068069 1844.958984,234.632385 1849.476929,233.144226 
	C1881.489868,222.599426 1914.189697,218.278198 1948.542114,221.296799 
	C1947.309937,225.700500 1946.202148,229.799530 1945.016602,233.875900 
	C1912.840576,344.504913 1875.935181,453.464905 1830.124512,559.279602 
	C1818.775879,585.493042 1807.612061,611.800354 1792.720215,636.291321 
	C1781.648560,654.499878 1768.728271,671.129272 1751.225708,683.687134 
	C1733.858032,696.148010 1714.134521,702.107117 1693.075073,703.941162 
	C1684.186890,704.715210 1675.243286,704.852051 1666.062988,705.291138 
	C1666.062988,676.084351 1666.062988,647.822998 1666.062988,619.410034 
	C1671.334106,618.844482 1676.633545,618.583191 1681.815063,617.660217 
	C1695.415894,615.237610 1706.539795,608.398254 1713.956177,596.779175 
	C1720.093994,587.163452 1725.246704,576.900574 1730.457642,566.730591 
	C1731.291382,565.103577 1730.718140,562.180115 1729.822510,560.325989 
	C1698.295898,495.064270 1669.740479,428.526825 1645.711548,360.151581 
	C1632.774414,323.338196 1621.634277,285.894409 1609.545288,248.780045 
	C1608.429688,245.355301 1609.138916,243.920349 1612.394775,242.430099 
	C1639.301880,230.114334 1667.451294,222.815643 1696.990356,220.934509 
	C1699.148193,220.797104 1701.319092,220.848511 1703.483887,220.846207 
	C1704.133789,220.845520 1704.783691,220.960373 1704.288208,220.913177 
	C1719.820068,272.305176 1735.184326,323.142731 1750.691040,374.351105 
z"/>
<path fill="#019DCD" opacity="1.000000" stroke="none" 
	d="
M443.038269,271.108704 
	C441.206421,272.833160 439.521973,274.185822 438.002716,275.703766 
	C403.585419,310.091614 369.178284,344.489685 334.812164,378.928619 
	C333.412140,380.331604 332.430237,382.151825 330.940918,384.209442 
	C328.536133,381.949432 327.088623,380.660461 325.720093,379.292480 
	C291.192932,344.778839 256.678436,310.252563 222.137726,275.752502 
	C220.743332,274.359741 219.114899,273.201294 217.296265,271.772797 
	C215.797318,270.077454 214.743210,268.397552 213.376801,267.029633 
	C168.749191,222.351837 124.098000,177.697617 79.408752,133.081512 
	C78.004761,131.679825 76.162079,130.717545 74.785339,129.736664 
	C85.503380,112.156677 122.914955,75.780678 141.904556,64.082275 
	C204.503098,126.683846 267.141541,189.325317 329.913818,252.100632 
	C392.493317,189.518951 454.642792,127.367310 517.058167,64.949753 
	C542.646423,83.587341 564.569580,105.119789 584.301270,131.156738 
	C582.511292,132.375534 580.630432,133.271057 579.240601,134.658401 
	C535.136780,178.681870 491.079529,222.751953 447.022278,266.821991 
	C445.730530,268.114105 444.514160,269.481567 443.038269,271.108704 
z"/>
<path fill="#212229" opacity="1.000000" stroke="none" 
	d="
M1966.761475,276.791199 
	C1981.863037,248.501892 2006.394409,233.628983 2036.113892,226.062119 
	C2062.635986,219.309311 2089.669189,219.060532 2116.481934,222.758789 
	C2136.329102,225.496216 2155.823730,230.806198 2175.454590,235.065903 
	C2177.839111,235.583282 2180.093994,236.696838 2182.735107,237.652008 
	C2177.407227,261.987640 2172.152588,285.987549 2166.879883,310.069733 
	C2155.150146,306.870270 2143.766602,303.346283 2132.183105,300.698059 
	C2111.758057,296.028503 2091.093506,294.322693 2070.275635,297.986420 
	C2067.039795,298.555908 2063.809814,299.615784 2060.803711,300.956635 
	C2044.433960,308.258118 2041.807251,328.933960 2056.839355,338.648804 
	C2068.178223,345.976746 2080.932861,351.167633 2093.223877,356.955750 
	C2111.981689,365.789276 2131.374023,373.401703 2149.616943,383.174683 
	C2182.565186,400.825470 2197.107666,429.584717 2196.906494,466.564850 
	C2196.771484,491.372101 2191.354980,514.110229 2173.405029,532.405151 
	C2158.871582,547.217834 2140.707764,555.591797 2120.995605,560.820679 
	C2094.333252,567.893127 2067.114258,568.613892 2039.722168,567.564270 
	C2009.155396,566.392883 1979.796387,559.776550 1951.272095,549.024963 
	C1950.504028,548.735535 1949.774048,548.344971 1948.483887,547.752441 
	C1953.564087,522.603210 1958.650513,497.423126 1963.614502,472.849030 
	C1979.758789,477.441406 1995.368042,482.512543 2011.288330,486.263428 
	C2035.582153,491.987183 2060.250732,494.015076 2085.091309,489.999329 
	C2099.427002,487.681824 2105.826416,480.838562 2105.921387,468.292786 
	C2105.989502,459.284210 2100.857666,453.112549 2093.676758,449.019165 
	C2084.034180,443.522247 2074.042236,438.558899 2063.906006,434.024536 
	C2046.785767,426.366058 2029.122559,419.869537 2012.253540,411.713806 
	C1986.740723,399.378967 1967.795410,380.559479 1960.779541,352.204590 
	C1954.465088,326.684601 1955.086670,301.409393 1966.761475,276.791199 
z"/>
<path fill="#212229" opacity="1.000000" stroke="none" 
	d="
M1431.998169,314.351562 
	C1429.573486,325.765015 1432.050049,334.171082 1441.999390,339.517609 
	C1456.720947,347.428497 1472.281372,353.766754 1487.397949,360.956696 
	C1504.020020,368.862549 1521.075928,376.049286 1536.995361,385.197754 
	C1566.319946,402.049683 1579.944092,428.426880 1580.603394,462.075317 
	C1581.001953,482.415985 1578.507812,501.898926 1567.330688,519.426697 
	C1554.496582,539.552979 1535.151611,550.718201 1513.187866,558.010986 
	C1486.407593,566.903015 1458.675415,567.959351 1430.791382,567.509399 
	C1400.086426,567.013855 1370.333374,561.349731 1341.433838,551.058838 
	C1338.495361,550.012512 1335.596436,548.854675 1332.316162,547.611023 
	C1337.439941,522.249084 1342.496338,497.221039 1347.578491,472.065430 
	C1358.633911,475.607635 1369.246094,479.333893 1380.045166,482.403076 
	C1406.003662,489.780640 1432.451172,493.217896 1459.458618,490.961395 
	C1464.246582,490.561340 1469.051025,489.786102 1473.719116,488.653503 
	C1481.506348,486.764221 1487.134644,482.413269 1489.062012,474.081085 
	C1491.153442,465.039062 1489.186768,456.830353 1481.496460,451.961029 
	C1470.754517,445.159546 1459.348145,439.266907 1447.791138,433.926605 
	C1430.475220,425.925171 1412.484985,419.354828 1395.319946,411.061554 
	C1371.489990,399.548126 1353.146484,382.119843 1345.830933,355.948792 
	C1337.127319,324.812714 1337.906860,294.190582 1356.956177,266.444946 
	C1372.115601,244.365128 1394.332397,232.494629 1419.728271,226.079651 
	C1446.082153,219.422714 1472.849243,219.700241 1499.627686,222.442444 
	C1521.023193,224.633408 1541.976074,229.180756 1562.386597,236.063690 
	C1563.619507,236.479492 1564.809937,237.021530 1566.565063,237.722443 
	C1561.299072,261.783966 1556.052368,285.757721 1550.674927,310.328552 
	C1546.417725,309.005188 1542.385620,307.773468 1538.367188,306.499023 
	C1515.359619,299.202271 1491.874390,294.754944 1467.669189,296.337585 
	C1459.830078,296.850128 1451.968018,298.859131 1444.402832,301.135406 
	C1438.281860,302.977173 1434.086182,307.664124 1431.998169,314.351562 
z"/>
<path fill="#202128" opacity="1.000000" stroke="none" 
	d="
M886.166504,313.000061 
	C886.166504,397.953644 886.166504,482.407227 886.166504,567.175720 
	C853.280518,567.175720 820.736450,567.175720 787.508972,567.175720 
	C787.508972,565.324219 787.509033,563.560181 787.509033,561.796204 
	C787.509033,404.830780 787.506287,247.865356 787.533691,90.899933 
	C787.534119,88.435631 786.625732,85.825066 790.547729,84.645882 
	C821.569824,75.318893 853.322632,71.874336 886.166504,71.978516 
	C886.166504,152.356232 886.166504,232.428131 886.166504,313.000061 
z"/>
<path fill="#212229" opacity="1.000000" stroke="none" 
	d="
M936.163025,478.999939 
	C936.163025,402.531464 936.179199,326.562927 936.106323,250.594543 
	C936.103271,247.428146 936.558960,245.656738 940.093933,244.510864 
	C989.352112,228.543686 1039.556763,218.636444 1091.605469,221.116226 
	C1105.833130,221.794113 1119.993896,223.876251 1134.803833,225.376602 
	C1129.450317,253.099304 1124.300415,279.767426 1119.081055,306.795898 
	C1091.010254,301.082489 1063.495972,302.132599 1035.602173,308.083771 
	C1035.602173,394.444580 1035.602173,480.654144 1035.602173,567.187988 
	C1002.236572,567.187988 969.366394,567.187988 936.163025,567.187988 
	C936.163025,537.760315 936.163025,508.630157 936.163025,478.999939 
z"/>
<path fill="#212229" opacity="1.000000" stroke="none" 
	d="
M1199.748779,229.743561 
	C1227.067627,222.785217 1254.494019,220.539612 1282.507690,220.401886 
	C1282.507690,335.999634 1282.507690,451.370636 1282.507690,567.129150 
	C1249.922607,567.129150 1217.227783,567.129150 1184.346680,567.129150 
	C1184.346680,456.164124 1184.346680,345.412811 1184.346680,234.008743 
	C1189.214600,232.661636 1194.283081,231.259003 1199.748779,229.743561 
z"/>
<path fill="#0F408F" opacity="1.000000" stroke="none" 
	d="
M274.912109,7.973694 
	C342.553101,-2.996679 406.912506,6.020426 468.318634,35.557232 
	C474.431091,38.497368 480.377838,41.781971 486.764618,45.095074 
	C485.378204,46.608536 484.434540,47.720055 483.407288,48.748085 
	C462.557404,69.613930 441.642303,90.415276 420.911407,111.398582 
	C418.348358,113.992828 416.356476,114.187241 413.137054,112.921188 
	C357.941864,91.215492 302.544617,90.824478 247.093399,111.880554 
	C243.205246,113.356964 240.955429,112.715759 238.134399,109.867516 
	C216.559616,88.084602 194.818756,66.466164 172.582993,44.250523 
	C204.700134,26.106077 238.588150,14.294479 274.912109,7.973694 
z"/>
<path fill="#212229" opacity="1.000000" stroke="none" 
	d="
M1242.877319,168.012207 
	C1223.465088,170.834274 1206.806274,165.973511 1194.494751,151.058136 
	C1181.925293,135.830399 1181.092041,117.962280 1187.870850,100.180397 
	C1194.362427,83.151657 1208.205078,74.430321 1225.866821,71.865448 
	C1243.877930,69.249832 1259.672729,74.276619 1271.778198,88.017326 
	C1295.296875,114.713097 1281.576050,158.287674 1247.178711,167.053329 
	C1245.893066,167.380936 1244.598022,167.671249 1242.877319,168.012207 
z"/>
</svg>