<svg version="1.1" id="Layer_1" xmlns="http://www.w3.org/2000/svg" xmlns:xlink="http://www.w3.org/1999/xlink" x="0px" y="0px"
	 width="100%" viewBox="0 0 2208 707" enable-background="new 0 0 2208 707" xml:space="preserve">
<path fill="#000000" opacity="1.000000" stroke="none" 
	d="
M1422.000000,708.000000 
	C948.000000,708.000000 474.500000,708.000000 1.000000,708.000000 
	C1.000000,472.333344 1.000000,236.666672 1.000000,1.000000 
	C737.000000,1.000000 1473.000000,1.000000 2209.000000,1.000000 
	C2209.000000,236.666672 2209.000000,472.333344 2209.000000,708.000000 
	C1946.833374,708.000000 1684.666626,708.000000 1422.000000,708.000000 
M222.067856,270.988281 
	C156.572845,270.992188 91.077835,270.996063 25.582827,271.000000 
	C24.416229,271.000061 23.063536,270.627777 22.129311,271.093933 
	C20.913038,271.700806 19.212482,272.905121 19.123465,273.969635 
	C17.619553,291.954559 16.148605,309.946960 15.105826,327.962921 
	C14.765495,333.842743 15.544477,339.804565 16.032888,345.710571 
	C16.563797,352.130371 17.352350,358.528900 18.068060,365.310974 
	C87.695396,365.310974 156.696548,365.310974 226.814301,365.310974 
	C176.793671,415.328156 127.560425,464.558014 78.155373,513.959656 
	C96.793129,539.155640 118.885262,561.164917 144.618759,580.615173 
	C192.717194,532.503357 240.698608,484.508636 288.999969,436.193848 
	C288.999969,438.109894 288.999969,439.723511 288.999969,441.337097 
	C288.999969,505.666595 288.999969,569.996094 289.000000,634.325623 
	C289.000000,635.492249 288.638550,636.831177 289.091309,637.782471 
	C289.678314,639.015869 290.839691,640.778259 291.882172,640.871033 
	C305.282867,642.063782 318.708313,643.811340 332.123749,643.780823 
	C346.711487,643.747620 361.303345,642.104248 375.877380,640.958496 
	C383.016479,640.397278 383.000031,640.187805 383.000031,633.072083 
	C383.000061,568.242615 383.000031,503.413116 383.000031,438.583649 
	C383.000031,436.841858 383.000031,435.100067 383.000031,433.358276 
	C385.234009,434.234283 386.253784,435.729309 387.510834,436.987305 
	C433.217285,482.727600 478.945923,528.445801 524.670593,574.167908 
	C525.494507,574.991760 526.175110,576.244995 527.157410,576.555786 
	C528.555725,576.998169 530.744507,577.428528 531.607544,576.697510 
	C542.240967,567.690491 552.971680,558.764771 563.096924,549.203308 
	C569.895569,542.783264 575.921265,535.513794 582.009521,528.382507 
	C586.600342,523.005249 590.742188,517.244690 595.807007,510.723633 
	C547.028137,461.949860 498.466522,413.393372 450.068085,365.000031 
	C451.238892,365.000031 452.883026,365.000031 454.527161,365.000031 
	C518.856689,365.000031 583.186157,365.000031 647.515686,364.999969 
	C648.682251,364.999969 649.987671,365.329010 650.979065,364.912018 
	C652.126709,364.429260 653.766296,363.372894 653.869019,362.422577 
	C654.749390,354.276794 655.815979,346.102783 655.886047,337.929138 
	C655.991150,325.681549 655.576477,313.414490 654.924255,301.180145 
	C654.389343,291.144501 653.186096,281.144470 652.267456,270.999969 
	C649.616577,270.999969 647.798767,270.999969 645.981018,270.999969 
	C592.150879,270.999969 538.320740,271.009094 484.490601,270.992554 
	C473.328796,270.989105 462.166992,270.890289 451.266235,270.236725 
	C497.980042,223.530106 544.693909,176.823502 591.459900,130.064713 
	C584.155212,121.329094 577.976624,112.446533 570.317566,105.109390 
	C556.766846,92.128357 542.149170,80.267799 528.348206,67.537071 
	C524.484558,63.973053 522.758423,65.659767 520.026245,68.396172 
	C460.461334,128.053177 400.833282,187.647156 341.280670,247.316422 
	C339.916107,248.683640 339.283691,250.781525 338.309753,252.538605 
	C335.006592,250.002396 333.949921,248.481461 332.661560,247.192017 
	C287.912994,202.406235 243.142181,157.642654 198.375427,112.875031 
	C182.942810,97.442108 167.462814,82.055916 152.132324,66.522194 
	C149.714249,64.072067 148.060608,63.373375 145.165665,65.891411 
	C138.613556,71.590469 131.637939,76.801399 125.061546,82.474014 
	C110.384270,95.134239 97.008263,109.036156 84.800446,124.136520 
	C81.434792,128.299637 82.505409,130.136002 85.662247,133.280975 
	C130.277527,177.728256 174.781967,222.286819 219.303848,266.827789 
	C220.586426,268.110931 221.765762,269.497284 222.067856,270.988281 
M1883.540649,444.970245 
	C1889.366455,428.681793 1895.588989,412.522491 1900.942993,396.080444 
	C1916.477783,348.374725 1931.712158,300.570831 1946.949829,252.768951 
	C1950.249268,242.418564 1953.069214,231.915375 1956.144897,221.363007 
	C1953.098877,220.873428 1950.365845,219.980698 1947.667969,220.076385 
	C1933.496216,220.579056 1919.321411,221.146835 1905.170166,222.045074 
	C1888.141724,223.125961 1871.864746,227.812729 1855.691772,232.936722 
	C1852.455933,233.961899 1849.949951,235.357193 1849.029175,238.810669 
	C1842.368408,263.789856 1835.875366,288.815460 1828.989990,313.732605 
	C1821.041504,342.496216 1813.002808,371.240173 1804.507812,399.845612 
	C1799.036255,418.270264 1792.672974,436.430115 1786.500488,455.348206 
	C1781.867188,442.806091 1777.067627,430.947418 1773.087158,418.819855 
	C1762.439697,386.378174 1751.693848,353.956848 1741.834473,321.271820 
	C1732.013306,288.713135 1723.255249,255.834198 1713.855103,223.146332 
	C1713.477173,221.831940 1711.245850,220.095367 1709.958008,220.159409 
	C1703.608276,220.475113 1697.228271,220.997940 1690.965332,222.069183 
	C1678.720337,224.163620 1666.330933,225.899353 1654.402832,229.223984 
	C1642.417847,232.564514 1630.898438,237.596954 1619.233154,242.040848 
	C1617.233154,242.802811 1614.159912,243.027191 1615.358887,246.860596 
	C1619.570190,260.324921 1623.472778,273.886871 1627.769653,287.323181 
	C1634.066895,307.014862 1640.365967,326.711884 1647.107422,346.253693 
	C1653.165039,363.813019 1659.548462,381.271973 1666.283813,398.582367 
	C1673.892456,418.137634 1681.903320,437.540833 1690.017822,456.893372 
	C1698.071655,476.100708 1706.300049,495.239258 1714.772339,514.265198 
	C1721.954102,530.392639 1729.629395,546.299866 1736.957275,562.363403 
	C1737.509277,563.573425 1737.545898,565.527588 1736.944092,566.675293 
	C1731.734985,576.608093 1726.934814,586.836121 1720.799438,596.179382 
	C1714.870483,605.208130 1706.957031,612.598022 1695.745239,615.017822 
	C1687.918945,616.707031 1680.052612,618.210754 1672.323242,619.773254 
	C1672.323242,648.052856 1672.323242,676.454651 1672.323242,706.240723 
	C1687.126953,704.798523 1701.553467,703.920898 1715.812134,701.873840 
	C1734.732300,699.157593 1751.432739,690.735046 1765.865356,678.468018 
	C1783.865479,663.168640 1797.097412,643.897217 1807.863892,623.084473 
	C1816.416504,606.551392 1824.064819,589.538635 1831.766479,572.580750 
	C1838.657959,557.406555 1845.443604,542.163940 1851.617676,526.688782 
	C1862.358276,499.768066 1872.591675,472.645020 1883.540649,444.970245 
M2072.578125,221.000000 
	C2065.503906,221.999054 2058.391357,222.781586 2051.362549,224.035797 
	C2025.207275,228.702957 2002.328003,239.350876 1984.510010,259.861389 
	C1971.899048,274.377899 1965.421387,291.356567 1964.262573,310.059906 
	C1963.525269,321.963135 1964.595093,334.121094 1966.158569,345.993103 
	C1969.016602,367.695496 1980.597290,384.974976 1997.205444,398.438080 
	C2014.214233,412.226074 2034.673706,419.917694 2054.782715,428.109100 
	C2069.154053,433.963196 2083.334473,440.358246 2097.252441,447.217468 
	C2102.959473,450.030121 2108.185791,454.250793 2110.887207,460.599823 
	C2113.775879,467.388702 2112.791260,480.817688 2103.716797,485.648224 
	C2091.296143,492.260101 2077.543701,491.027496 2064.181152,491.464813 
	C2057.504150,491.683380 2050.743164,490.821808 2044.089478,489.930695 
	C2034.625977,488.663269 2025.057739,487.580231 2015.837524,485.229370 
	C2000.463867,481.309662 1985.330566,476.447784 1970.258301,472.030182 
	C1969.603027,475.261047 1968.808594,479.212372 1967.999756,483.160767 
	C1964.439331,500.539368 1961.146240,517.978699 1957.223267,535.275085 
	C1954.246216,548.400208 1954.124756,548.861511 1966.949463,552.961304 
	C1991.511719,560.813477 2016.512451,567.184082 2042.355225,567.764771 
	C2063.659424,568.243530 2085.117188,567.754883 2106.307617,565.669250 
	C2125.201416,563.809631 2143.417725,557.961914 2160.153320,548.394226 
	C2178.698242,537.792175 2192.435059,523.192139 2199.141602,502.492401 
	C2205.778809,482.006775 2205.246338,461.206787 2201.654297,440.417328 
	C2197.871338,418.523895 2184.962402,402.121368 2167.571045,389.372498 
	C2151.423096,377.535431 2132.939697,369.809052 2114.596191,361.982117 
	C2100.296143,355.880524 2085.994385,349.769226 2071.867432,343.283234 
	C2065.262939,340.250977 2058.486328,336.255859 2056.235596,329.035034 
	C2052.298096,316.402130 2055.555908,305.150330 2071.649414,300.061096 
	C2089.186035,294.515381 2107.338867,295.928070 2124.960205,298.395111 
	C2141.395264,300.696106 2157.400146,306.068146 2174.088135,310.210907 
	C2175.251709,305.482574 2176.756592,299.931519 2177.973389,294.318054 
	C2181.796143,276.679840 2185.308350,258.970673 2189.433838,241.404816 
	C2190.280273,237.800552 2189.497070,236.790009 2186.452881,235.972580 
	C2177.778076,233.643021 2169.134521,231.194931 2160.478027,228.797211 
	C2138.000977,222.571594 2114.937500,220.835388 2091.778564,220.080048 
	C2085.711670,219.882187 2079.612793,220.666656 2072.578125,221.000000 
M1366.739746,475.967773 
	C1362.648560,474.277313 1358.557251,472.586853 1354.490479,470.906525 
	C1349.377075,495.624786 1344.358154,519.950073 1339.295776,544.266296 
	C1338.754150,546.867554 1338.879761,548.253906 1342.147095,549.167114 
	C1350.933838,551.623108 1359.510986,554.820007 1368.205078,557.617737 
	C1389.411133,564.442017 1411.371948,566.870544 1433.449707,567.842041 
	C1445.827759,568.386719 1458.318237,567.852661 1470.681396,566.854492 
	C1483.130249,565.849487 1495.686401,564.560974 1507.836304,561.810242 
	C1531.330688,556.491150 1552.620605,546.764099 1568.796997,527.814514 
	C1581.229736,513.250549 1586.638184,496.036285 1587.751831,477.568878 
	C1588.429932,466.323273 1587.123779,454.880920 1585.902466,443.614349 
	C1583.570801,422.103729 1572.048218,405.345642 1555.604614,392.481903 
	C1535.441284,376.708313 1511.802124,367.101379 1488.059448,357.904114 
	C1473.238281,352.162720 1458.557617,346.159302 1445.601562,336.422180 
	C1436.886841,329.872650 1436.112793,310.992188 1446.662354,304.086243 
	C1453.694214,299.483063 1461.588623,297.282867 1469.916504,297.056702 
	C1479.076416,296.807983 1488.249878,296.899780 1497.414307,297.047028 
	C1501.334595,297.110016 1505.358154,297.217773 1509.142944,298.114441 
	C1525.366333,301.957672 1541.518311,306.102173 1558.117676,310.242004 
	C1563.332886,286.496368 1568.708618,262.020477 1574.257568,236.755234 
	C1563.976440,233.943695 1554.065674,230.611725 1543.893921,228.597595 
	C1528.651001,225.579330 1513.296631,222.761871 1497.853638,221.234344 
	C1485.967163,220.058609 1473.855713,220.624069 1461.873657,221.122391 
	C1452.773071,221.500854 1443.618042,222.443176 1434.663086,224.090561 
	C1408.197754,228.959183 1384.970093,239.883759 1367.328003,261.092804 
	C1356.002441,274.708069 1349.519043,290.476990 1348.308838,307.764618 
	C1347.407104,320.645569 1348.469238,333.839874 1350.191162,346.688995 
	C1353.075073,368.211670 1364.907471,385.222229 1381.373047,398.533722 
	C1397.639282,411.683990 1417.114136,419.361786 1436.428955,426.970612 
	C1453.891846,433.849823 1471.540405,440.310577 1487.172852,451.024109 
	C1500.676880,460.278992 1498.402832,481.922760 1485.074219,486.288239 
	C1478.247803,488.524109 1471.039795,490.511536 1463.932983,490.789734 
	C1447.655273,491.426971 1431.256714,491.835724 1415.217773,487.967438 
	C1399.293091,484.126709 1383.437012,480.001190 1366.739746,475.967773 
M894.000000,158.500000 
	C894.000000,129.737579 894.000000,100.975151 894.000000,72.247101 
	C864.241516,70.672760 824.084351,75.090172 794.282227,85.498917 
	C794.282227,246.272583 794.282227,407.022003 794.282227,567.713745 
	C827.637146,567.713745 860.709045,567.713745 894.000000,567.713745 
	C894.000000,431.451782 894.000000,295.475891 894.000000,158.500000 
M943.000000,376.500000 
	C943.000000,440.256714 943.000000,504.013428 943.000000,567.718750 
	C976.632141,567.718750 1009.701477,567.718750 1042.986450,567.718750 
	C1042.986450,481.153046 1042.986450,394.868164 1042.986450,308.459808 
	C1070.954712,302.332397 1098.845581,301.406860 1126.442383,307.322266 
	C1128.755981,295.386902 1130.906982,284.445801 1132.992798,273.492249 
	C1135.803833,258.730194 1138.376343,243.918808 1141.485107,229.220322 
	C1142.220337,225.743607 1141.387329,225.110367 1138.380859,224.958969 
	C1135.293213,224.803467 1132.225464,224.286880 1129.143677,223.981476 
	C1115.645020,222.643814 1102.165405,220.612305 1088.638184,220.213593 
	C1076.665405,219.860672 1064.617188,221.073990 1052.641724,222.071045 
	C1040.455200,223.085693 1028.087280,223.634094 1016.205261,226.240005 
	C991.628601,231.630051 967.321777,238.250473 943.000000,244.340836 
	C943.000000,288.866211 943.000000,332.183105 943.000000,376.500000 
M1234.368774,223.996979 
	C1221.440063,226.702133 1208.515503,229.427841 1195.579834,232.099319 
	C1191.915405,232.856125 1190.903198,234.887833 1190.907104,238.654053 
	C1191.022217,346.926453 1190.999146,455.199036 1191.009033,563.471558 
	C1191.009155,564.909119 1191.145508,566.346619 1191.215820,567.737122 
	C1224.282471,567.737122 1257.008179,567.737122 1289.801636,567.737122 
	C1289.801636,451.781647 1289.801636,336.089142 1289.801636,219.482315 
	C1274.626465,220.353836 1259.691650,221.134949 1244.771240,222.129486 
	C1241.578003,222.342346 1238.436279,223.328873 1234.368774,223.996979 
M322.705322,3.000010 
	C313.125061,3.999399 303.505341,4.720504 293.975037,6.072099 
	C283.255035,7.592420 272.410828,8.915487 261.989594,11.703485 
	C246.538483,15.837132 231.171860,20.549721 216.220520,26.208202 
	C203.377945,31.068600 191.167770,37.599953 178.122437,43.650040 
	C201.623077,67.141594 224.216888,89.761505 246.910080,112.281265 
	C247.799164,113.163567 249.842453,113.725891 251.001190,113.354752 
	C257.855133,111.159439 264.537354,108.422058 271.406189,106.280159 
	C287.849792,101.152542 304.773804,98.018013 321.909119,97.184235 
	C338.495087,96.377197 355.086212,96.951546 371.640808,99.813255 
	C389.801331,102.952583 407.245544,108.056152 424.137756,114.834229 
	C447.314728,91.641312 470.494141,68.445969 493.828979,45.095058 
	C492.682648,44.316071 491.452179,43.229313 490.027222,42.551334 
	C478.720825,37.171749 467.555389,31.443823 456.012634,26.622631 
	C418.817627,11.087017 379.910645,3.640286 339.658600,3.011435 
	C334.330048,2.928188 328.999084,3.000000 322.705322,3.000010 
M1218.747925,164.975830 
	C1229.624634,169.266617 1240.849976,170.507034 1252.253540,167.941528 
	C1267.626099,164.483017 1279.219482,156.036377 1286.130737,141.479401 
	C1290.303467,132.690445 1290.413208,123.430305 1289.926025,114.143929 
	C1289.204346,100.387001 1283.021362,89.350960 1272.048462,81.001389 
	C1261.461792,72.945724 1249.405273,70.238014 1236.335693,70.984123 
	C1224.978638,71.632469 1215.046875,75.707840 1206.439331,83.079277 
	C1194.952393,92.916481 1190.932007,105.619629 1190.862549,120.467026 
	C1190.766113,141.102997 1200.149292,155.333099 1218.747925,164.975830 
z"/>
<path fill="#FFFFFF" opacity="1.000000" stroke="none" 
	d="
M451.005188,270.835449 
	C462.166992,270.890289 473.328796,270.989105 484.490601,270.992554 
	C538.320740,271.009094 592.150879,270.999969 645.981018,270.999969 
	C647.798767,270.999969 649.616577,270.999969 652.267456,270.999969 
	C653.186096,281.144470 654.389343,291.144501 654.924255,301.180145 
	C655.576477,313.414490 655.991150,325.681549 655.886047,337.929138 
	C655.815979,346.102783 654.749390,354.276794 653.869019,362.422577 
	C653.766296,363.372894 652.126709,364.429260 650.979065,364.912018 
	C649.987671,365.329010 648.682251,364.999969 647.515686,364.999969 
	C583.186157,365.000031 518.856689,365.000031 454.527161,365.000031 
	C452.883026,365.000031 451.238892,365.000031 450.068085,365.000031 
	C498.466522,413.393372 547.028137,461.949860 595.807007,510.723633 
	C590.742188,517.244690 586.600342,523.005249 582.009521,528.382507 
	C575.921265,535.513794 569.895569,542.783264 563.096924,549.203308 
	C552.971680,558.764771 542.240967,567.690491 531.607544,576.697510 
	C530.744507,577.428528 528.555725,576.998169 527.157410,576.555786 
	C526.175110,576.244995 525.494507,574.991760 524.670593,574.167908 
	C478.945923,528.445801 433.217285,482.727600 387.510834,436.987305 
	C386.253784,435.729309 385.234009,434.234283 383.000031,433.358276 
	C383.000031,435.100067 383.000031,436.841858 383.000031,438.583649 
	C383.000031,503.413116 383.000061,568.242615 383.000031,633.072083 
	C383.000031,640.187805 383.016479,640.397278 375.877380,640.958496 
	C361.303345,642.104248 346.711487,643.747620 332.123749,643.780823 
	C318.708313,643.811340 305.282867,642.063782 291.882172,640.871033 
	C290.839691,640.778259 289.678314,639.015869 289.091309,637.782471 
	C288.638550,636.831177 289.000000,635.492249 289.000000,634.325623 
	C288.999969,569.996094 288.999969,505.666595 288.999969,441.337097 
	C288.999969,439.723511 288.999969,438.109894 288.999969,436.193848 
	C240.698608,484.508636 192.717194,532.503357 144.618759,580.615173 
	C118.885262,561.164917 96.793129,539.155640 78.155373,513.959656 
	C127.560425,464.558014 176.793671,415.328156 226.814301,365.310974 
	C156.696548,365.310974 87.695396,365.310974 18.068060,365.310974 
	C17.352350,358.528900 16.563797,352.130371 16.032888,345.710571 
	C15.544477,339.804565 14.765495,333.842743 15.105826,327.962921 
	C16.148605,309.946960 17.619553,291.954559 19.123465,273.969635 
	C19.212482,272.905121 20.913038,271.700806 22.129311,271.093933 
	C23.063536,270.627777 24.416229,271.000061 25.582827,271.000000 
	C91.077835,270.996063 156.572845,270.992188 222.865646,271.005829 
	C225.175964,272.288605 226.795639,273.446594 228.185364,274.834747 
	C263.153076,309.763611 298.095337,344.717926 333.049438,379.660400 
	C334.311310,380.921875 335.647339,382.109192 337.155243,383.524841 
	C341.709167,378.908478 345.980042,374.519958 350.314270,370.194885 
	C383.050537,337.527802 415.796112,304.870056 448.566345,272.237061 
	C449.208160,271.597961 450.184784,271.295135 451.005188,270.835449 
z"/>
<path fill="#FFFFFF" opacity="1.000000" stroke="none" 
	d="
M1883.289185,445.288513 
	C1872.591675,472.645020 1862.358276,499.768066 1851.617676,526.688782 
	C1845.443604,542.163940 1838.657959,557.406555 1831.766479,572.580750 
	C1824.064819,589.538635 1816.416504,606.551392 1807.863892,623.084473 
	C1797.097412,643.897217 1783.865479,663.168640 1765.865356,678.468018 
	C1751.432739,690.735046 1734.732300,699.157593 1715.812134,701.873840 
	C1701.553467,703.920898 1687.126953,704.798523 1672.323242,706.240723 
	C1672.323242,676.454651 1672.323242,648.052856 1672.323242,619.773254 
	C1680.052612,618.210754 1687.918945,616.707031 1695.745239,615.017822 
	C1706.957031,612.598022 1714.870483,605.208130 1720.799438,596.179382 
	C1726.934814,586.836121 1731.734985,576.608093 1736.944092,566.675293 
	C1737.545898,565.527588 1737.509277,563.573425 1736.957275,562.363403 
	C1729.629395,546.299866 1721.954102,530.392639 1714.772339,514.265198 
	C1706.300049,495.239258 1698.071655,476.100708 1690.017822,456.893372 
	C1681.903320,437.540833 1673.892456,418.137634 1666.283813,398.582367 
	C1659.548462,381.271973 1653.165039,363.813019 1647.107422,346.253693 
	C1640.365967,326.711884 1634.066895,307.014862 1627.769653,287.323181 
	C1623.472778,273.886871 1619.570190,260.324921 1615.358887,246.860596 
	C1614.159912,243.027191 1617.233154,242.802811 1619.233154,242.040848 
	C1630.898438,237.596954 1642.417847,232.564514 1654.402832,229.223984 
	C1666.330933,225.899353 1678.720337,224.163620 1690.965332,222.069183 
	C1697.228271,220.997940 1703.608276,220.475113 1709.958008,220.159409 
	C1711.245850,220.095367 1713.477173,221.831940 1713.855103,223.146332 
	C1723.255249,255.834198 1732.013306,288.713135 1741.834473,321.271820 
	C1751.693848,353.956848 1762.439697,386.378174 1773.087158,418.819855 
	C1777.067627,430.947418 1781.867188,442.806091 1786.500488,455.348206 
	C1792.672974,436.430115 1799.036255,418.270264 1804.507812,399.845612 
	C1813.002808,371.240173 1821.041504,342.496216 1828.989990,313.732605 
	C1835.875366,288.815460 1842.368408,263.789856 1849.029175,238.810669 
	C1849.949951,235.357193 1852.455933,233.961899 1855.691772,232.936722 
	C1871.864746,227.812729 1888.141724,223.125961 1905.170166,222.045074 
	C1919.321411,221.146835 1933.496216,220.579056 1947.667969,220.076385 
	C1950.365845,219.980698 1953.098877,220.873428 1956.144897,221.363007 
	C1953.069214,231.915375 1950.249268,242.418564 1946.949829,252.768951 
	C1931.712158,300.570831 1916.477783,348.374725 1900.942993,396.080444 
	C1895.588989,412.522491 1889.366455,428.681793 1883.289185,445.288513 
z"/>
<path fill="#009DCD" opacity="1.000000" stroke="none" 
	d="
M451.135712,270.536072 
	C450.184784,271.295135 449.208160,271.597961 448.566345,272.237061 
	C415.796112,304.870056 383.050537,337.527802 350.314270,370.194885 
	C345.980042,374.519958 341.709167,378.908478 337.155243,383.524841 
	C335.647339,382.109192 334.311310,380.921875 333.049438,379.660400 
	C298.095337,344.717926 263.153076,309.763611 228.185364,274.834747 
	C226.795639,273.446594 225.175964,272.288605 223.328339,270.929443 
	C221.765762,269.497284 220.586426,268.110931 219.303848,266.827789 
	C174.781967,222.286819 130.277527,177.728256 85.662247,133.280975 
	C82.505409,130.136002 81.434792,128.299637 84.800446,124.136520 
	C97.008263,109.036156 110.384270,95.134239 125.061546,82.474014 
	C131.637939,76.801399 138.613556,71.590469 145.165665,65.891411 
	C148.060608,63.373375 149.714249,64.072067 152.132324,66.522194 
	C167.462814,82.055916 182.942810,97.442108 198.375427,112.875031 
	C243.142181,157.642654 287.912994,202.406235 332.661560,247.192017 
	C333.949921,248.481461 335.006592,250.002396 338.309753,252.538605 
	C339.283691,250.781525 339.916107,248.683640 341.280670,247.316422 
	C400.833282,187.647156 460.461334,128.053177 520.026245,68.396172 
	C522.758423,65.659767 524.484558,63.973053 528.348206,67.537071 
	C542.149170,80.267799 556.766846,92.128357 570.317566,105.109390 
	C577.976624,112.446533 584.155212,121.329094 591.459900,130.064713 
	C544.693909,176.823502 497.980042,223.530106 451.135712,270.536072 
z"/>
<path fill="#FFFFFF" opacity="1.000000" stroke="none" 
	d="
M2073.053223,221.000000 
	C2079.612793,220.666656 2085.711670,219.882187 2091.778564,220.080048 
	C2114.937500,220.835388 2138.000977,222.571594 2160.478027,228.797211 
	C2169.134521,231.194931 2177.778076,233.643021 2186.452881,235.972580 
	C2189.497070,236.790009 2190.280273,237.800552 2189.433838,241.404816 
	C2185.308350,258.970673 2181.796143,276.679840 2177.973389,294.318054 
	C2176.756592,299.931519 2175.251709,305.482574 2174.088135,310.210907 
	C2157.400146,306.068146 2141.395264,300.696106 2124.960205,298.395111 
	C2107.338867,295.928070 2089.186035,294.515381 2071.649414,300.061096 
	C2055.555908,305.150330 2052.298096,316.402130 2056.235596,329.035034 
	C2058.486328,336.255859 2065.262939,340.250977 2071.867432,343.283234 
	C2085.994385,349.769226 2100.296143,355.880524 2114.596191,361.982117 
	C2132.939697,369.809052 2151.423096,377.535431 2167.571045,389.372498 
	C2184.962402,402.121368 2197.871338,418.523895 2201.654297,440.417328 
	C2205.246338,461.206787 2205.778809,482.006775 2199.141602,502.492401 
	C2192.435059,523.192139 2178.698242,537.792175 2160.153320,548.394226 
	C2143.417725,557.961914 2125.201416,563.809631 2106.307617,565.669250 
	C2085.117188,567.754883 2063.659424,568.243530 2042.355225,567.764771 
	C2016.512451,567.184082 1991.511719,560.813477 1966.949463,552.961304 
	C1954.124756,548.861511 1954.246216,548.400208 1957.223267,535.275085 
	C1961.146240,517.978699 1964.439331,500.539368 1967.999756,483.160767 
	C1968.808594,479.212372 1969.603027,475.261047 1970.258301,472.030182 
	C1985.330566,476.447784 2000.463867,481.309662 2015.837524,485.229370 
	C2025.057739,487.580231 2034.625977,488.663269 2044.089478,489.930695 
	C2050.743164,490.821808 2057.504150,491.683380 2064.181152,491.464813 
	C2077.543701,491.027496 2091.296143,492.260101 2103.716797,485.648224 
	C2112.791260,480.817688 2113.775879,467.388702 2110.887207,460.599823 
	C2108.185791,454.250793 2102.959473,450.030121 2097.252441,447.217468 
	C2083.334473,440.358246 2069.154053,433.963196 2054.782715,428.109100 
	C2034.673706,419.917694 2014.214233,412.226074 1997.205444,398.438080 
	C1980.597290,384.974976 1969.016602,367.695496 1966.158569,345.993103 
	C1964.595093,334.121094 1963.525269,321.963135 1964.262573,310.059906 
	C1965.421387,291.356567 1971.899048,274.377899 1984.510010,259.861389 
	C2002.328003,239.350876 2025.207275,228.702957 2051.362549,224.035797 
	C2058.391357,222.781586 2065.503906,221.999054 2073.053223,221.000000 
z"/>
<path fill="#FFFFFF" opacity="1.000000" stroke="none" 
	d="
M1367.145264,475.984192 
	C1383.437012,480.001190 1399.293091,484.126709 1415.217773,487.967438 
	C1431.256714,491.835724 1447.655273,491.426971 1463.932983,490.789734 
	C1471.039795,490.511536 1478.247803,488.524109 1485.074219,486.288239 
	C1498.402832,481.922760 1500.676880,460.278992 1487.172852,451.024109 
	C1471.540405,440.310577 1453.891846,433.849823 1436.428955,426.970612 
	C1417.114136,419.361786 1397.639282,411.683990 1381.373047,398.533722 
	C1364.907471,385.222229 1353.075073,368.211670 1350.191162,346.688995 
	C1348.469238,333.839874 1347.407104,320.645569 1348.308838,307.764618 
	C1349.519043,290.476990 1356.002441,274.708069 1367.328003,261.092804 
	C1384.970093,239.883759 1408.197754,228.959183 1434.663086,224.090561 
	C1443.618042,222.443176 1452.773071,221.500854 1461.873657,221.122391 
	C1473.855713,220.624069 1485.967163,220.058609 1497.853638,221.234344 
	C1513.296631,222.761871 1528.651001,225.579330 1543.893921,228.597595 
	C1554.065674,230.611725 1563.976440,233.943695 1574.257568,236.755234 
	C1568.708618,262.020477 1563.332886,286.496368 1558.117676,310.242004 
	C1541.518311,306.102173 1525.366333,301.957672 1509.142944,298.114441 
	C1505.358154,297.217773 1501.334595,297.110016 1497.414307,297.047028 
	C1488.249878,296.899780 1479.076416,296.807983 1469.916504,297.056702 
	C1461.588623,297.282867 1453.694214,299.483063 1446.662354,304.086243 
	C1436.112793,310.992188 1436.886841,329.872650 1445.601562,336.422180 
	C1458.557617,346.159302 1473.238281,352.162720 1488.059448,357.904114 
	C1511.802124,367.101379 1535.441284,376.708313 1555.604614,392.481903 
	C1572.048218,405.345642 1583.570801,422.103729 1585.902466,443.614349 
	C1587.123779,454.880920 1588.429932,466.323273 1587.751831,477.568878 
	C1586.638184,496.036285 1581.229736,513.250549 1568.796997,527.814514 
	C1552.620605,546.764099 1531.330688,556.491150 1507.836304,561.810242 
	C1495.686401,564.560974 1483.130249,565.849487 1470.681396,566.854492 
	C1458.318237,567.852661 1445.827759,568.386719 1433.449707,567.842041 
	C1411.371948,566.870544 1389.411133,564.442017 1368.205078,557.617737 
	C1359.510986,554.820007 1350.933838,551.623108 1342.147095,549.167114 
	C1338.879761,548.253906 1338.754150,546.867554 1339.295776,544.266296 
	C1344.358154,519.950073 1349.377075,495.624786 1354.490479,470.906525 
	C1358.557251,472.586853 1362.648560,474.277313 1367.145264,475.984192 
z"/>
<path fill="#FFFFFF" opacity="1.000000" stroke="none" 
	d="
M894.000000,159.000000 
	C894.000000,295.475891 894.000000,431.451782 894.000000,567.713745 
	C860.709045,567.713745 827.637146,567.713745 794.282227,567.713745 
	C794.282227,407.022003 794.282227,246.272583 794.282227,85.498917 
	C824.084351,75.090172 864.241516,70.672760 894.000000,72.247101 
	C894.000000,100.975151 894.000000,129.737579 894.000000,159.000000 
z"/>
<path fill="#FFFFFF" opacity="1.000000" stroke="none" 
	d="
M943.000000,376.000000 
	C943.000000,332.183105 943.000000,288.866211 943.000000,244.340836 
	C967.321777,238.250473 991.628601,231.630051 1016.205261,226.240005 
	C1028.087280,223.634094 1040.455200,223.085693 1052.641724,222.071045 
	C1064.617188,221.073990 1076.665405,219.860672 1088.638184,220.213593 
	C1102.165405,220.612305 1115.645020,222.643814 1129.143677,223.981476 
	C1132.225464,224.286880 1135.293213,224.803467 1138.380859,224.958969 
	C1141.387329,225.110367 1142.220337,225.743607 1141.485107,229.220322 
	C1138.376343,243.918808 1135.803833,258.730194 1132.992798,273.492249 
	C1130.906982,284.445801 1128.755981,295.386902 1126.442383,307.322266 
	C1098.845581,301.406860 1070.954712,302.332397 1042.986450,308.459808 
	C1042.986450,394.868164 1042.986450,481.153046 1042.986450,567.718750 
	C1009.701477,567.718750 976.632141,567.718750 943.000000,567.718750 
	C943.000000,504.013428 943.000000,440.256714 943.000000,376.000000 
z"/>
<path fill="#FFFFFF" opacity="1.000000" stroke="none" 
	d="
M1234.819824,223.977982 
	C1238.436279,223.328873 1241.578003,222.342346 1244.771240,222.129486 
	C1259.691650,221.134949 1274.626465,220.353836 1289.801636,219.482315 
	C1289.801636,336.089142 1289.801636,451.781647 1289.801636,567.737122 
	C1257.008179,567.737122 1224.282471,567.737122 1191.215820,567.737122 
	C1191.145508,566.346619 1191.009155,564.909119 1191.009033,563.471558 
	C1190.999146,455.199036 1191.022217,346.926453 1190.907104,238.654053 
	C1190.903198,234.887833 1191.915405,232.856125 1195.579834,232.099319 
	C1208.515503,229.427841 1221.440063,226.702133 1234.819824,223.977982 
z"/>
<path fill="#FFFFFF" opacity="1.000000" stroke="none" 
	d="
M323.187256,3.000005 
	C328.999084,3.000000 334.330048,2.928188 339.658600,3.011435 
	C379.910645,3.640286 418.817627,11.087017 456.012634,26.622631 
	C467.555389,31.443823 478.720825,37.171749 490.027222,42.551334 
	C491.452179,43.229313 492.682648,44.316071 493.828979,45.095058 
	C470.494141,68.445969 447.314728,91.641312 424.137756,114.834229 
	C407.245544,108.056152 389.801331,102.952583 371.640808,99.813255 
	C355.086212,96.951546 338.495087,96.377197 321.909119,97.184235 
	C304.773804,98.018013 287.849792,101.152542 271.406189,106.280159 
	C264.537354,108.422058 257.855133,111.159439 251.001190,113.354752 
	C249.842453,113.725891 247.799164,113.163567 246.910080,112.281265 
	C224.216888,89.761505 201.623077,67.141594 178.122437,43.650040 
	C191.167770,37.599953 203.377945,31.068600 216.220520,26.208202 
	C231.171860,20.549721 246.538483,15.837132 261.989594,11.703485 
	C272.410828,8.915487 283.255035,7.592420 293.975037,6.072099 
	C303.505341,4.720504 313.125061,3.999399 323.187256,3.000005 
z"/>
<path fill="#FFFFFF" opacity="1.000000" stroke="none" 
	d="
M1218.405884,164.778824 
	C1200.149292,155.333099 1190.766113,141.102997 1190.862549,120.467026 
	C1190.932007,105.619629 1194.952393,92.916481 1206.439331,83.079277 
	C1215.046875,75.707840 1224.978638,71.632469 1236.335693,70.984123 
	C1249.405273,70.238014 1261.461792,72.945724 1272.048462,81.001389 
	C1283.021362,89.350960 1289.204346,100.387001 1289.926025,114.143929 
	C1290.413208,123.430305 1290.303467,132.690445 1286.130737,141.479401 
	C1279.219482,156.036377 1267.626099,164.483017 1252.253540,167.941528 
	C1240.849976,170.507034 1229.624634,169.266617 1218.405884,164.778824 
z"/>
</svg>