<?xml version="1.0" standalone="no"?>
<!DOCTYPE svg PUBLIC "-//W3C//DTD SVG 20010904//EN"
 "http://www.w3.org/TR/2001/REC-SVG-20010904/DTD/svg10.dtd">
<svg version="1.0" xmlns="http://www.w3.org/2000/svg"
 width="2736.000000pt" height="1048.000000pt" viewBox="0 0 2736.000000 1048.000000"
 preserveAspectRatio="xMidYMid meet">

<g transform="translate(0.000000,1048.000000) scale(0.100000,-0.100000)"
fill="#000000" stroke="none">
<path d="M5575 8345 c-411 -50 -823 -177 -1149 -356 l-58 -32 346 -345 345
-346 63 23 c517 192 1091 195 1592 6 l99 -37 344 344 c311 310 342 344 326
356 -10 8 -58 34 -108 59 -304 154 -637 260 -990 315 -169 26 -641 34 -810 13z"/>
<path d="M3930 7658 c-136 -109 -369 -339 -464 -457 l-67 -85 1273 -1275 c700
-702 1021 -1025 713 -718 l-560 557 -1026 0 -1027 0 -5 -22 c-29 -121 -43
-605 -24 -810 l9 -88 1044 0 c574 0 1044 -3 1044 -7 0 -5 -334 -342 -742 -750
l-741 -741 78 -99 c135 -168 384 -412 538 -528 l38 -28 725 724 724 724 0
-1026 0 -1027 43 -6 c230 -34 633 -34 850 0 l37 6 0 1039 c0 571 3 1039 7
1039 5 0 336 -328 738 -730 l730 -730 105 87 c141 117 324 302 444 452 l100
122 -732 732 c-403 403 -732 735 -732 740 0 4 461 7 1024 7 l1024 0 6 38 c27
157 23 588 -7 792 l-12 85 -1015 3 -1015 2 708 708 709 709 -63 79 c-92 115
-367 388 -488 484 l-104 82 -931 -931 c-512 -512 -936 -931 -941 -931 -6 0
-431 421 -945 935 -514 514 -939 935 -945 935 -5 0 -62 -42 -125 -92z"/>
<path d="M14883 7679 c-123 -21 -241 -91 -314 -189 -112 -150 -112 -430 0
-580 163 -217 495 -262 714 -96 125 94 181 213 181 386 0 173 -56 292 -181
386 -112 85 -253 117 -400 93z"/>
<path d="M11245 7673 c-188 -10 -435 -50 -622 -100 l-103 -27 0 -2408 0 -2408
490 0 490 0 0 2475 0 2475 -97 -2 c-54 -1 -125 -3 -158 -5z"/>
<path d="M15265 6190 c-254 -12 -517 -53 -712 -111 l-73 -22 0 -1663 0 -1664
495 0 495 0 -2 1733 c-3 1724 -3 1732 -23 1733 -11 1 -92 -2 -180 -6z"/>
<path d="M21750 6189 c-202 -14 -448 -63 -609 -121 l-64 -23 -79 -300 c-229
-875 -547 -1932 -569 -1892 -18 31 -186 510 -279 792 -151 460 -351 1138 -431
1458 l-21 87 -59 0 c-76 0 -268 -25 -389 -51 -186 -41 -511 -161 -518 -191 -6
-32 220 -745 368 -1158 223 -621 580 -1473 814 -1939 l48 -94 -66 -131 c-141
-283 -281 -395 -518 -413 l-78 -6 0 -430 0 -430 143 6 c674 31 995 315 1407
1247 429 969 809 2016 1163 3205 93 312 111 375 106 379 -10 9 -267 13 -369 5z"/>
<path d="M13160 6183 c-297 -17 -677 -92 -1032 -204 l-128 -40 0 -1604 0
-1605 495 0 495 0 0 1294 0 1294 51 11 c27 6 110 18 182 27 148 19 407 14 534
-9 l72 -13 10 45 c46 222 144 752 139 757 -9 8 -166 31 -303 44 -101 9 -381
11 -515 3z"/>
<path d="M17095 6183 c-327 -30 -633 -163 -807 -351 -63 -67 -142 -189 -168
-260 -54 -142 -63 -198 -64 -382 -1 -214 23 -338 92 -475 126 -252 329 -399
817 -590 210 -83 415 -181 477 -230 52 -41 98 -120 98 -170 0 -60 -29 -132
-65 -164 -113 -98 -519 -106 -916 -16 -62 14 -186 50 -274 79 -88 30 -163 51
-166 47 -3 -3 -39 -172 -80 -374 -64 -319 -72 -369 -59 -377 54 -35 439 -140
605 -165 147 -22 623 -32 777 -16 245 26 431 76 598 162 360 184 511 478 479
934 -23 328 -145 530 -429 715 -96 62 -341 179 -535 255 -427 168 -540 256
-522 410 16 145 132 212 383 222 220 9 420 -20 688 -102 65 -20 120 -35 121
-33 4 5 155 698 155 712 0 35 -411 133 -680 161 -121 13 -420 18 -525 8z"/>
<path d="M23195 6174 c-312 -42 -550 -148 -726 -323 -115 -115 -189 -248 -231
-419 -29 -115 -31 -374 -4 -497 53 -239 176 -423 379 -563 96 -66 307 -168
532 -257 476 -188 594 -289 545 -467 -22 -77 -84 -124 -195 -149 -91 -21 -430
-18 -575 4 -147 23 -383 84 -527 135 -99 36 -113 38 -117 24 -18 -67 -147
-726 -143 -735 11 -28 377 -135 570 -167 248 -41 627 -49 867 -20 578 72 931
330 1013 740 35 172 30 387 -13 556 -38 149 -135 306 -248 401 -144 122 -377
246 -687 368 -307 120 -459 207 -499 284 -22 41 -29 113 -16 160 16 60 79 126
144 150 86 32 205 45 361 38 199 -9 367 -41 596 -113 45 -14 83 -24 85 -22 5
6 154 689 154 709 0 41 -431 142 -715 169 -149 14 -428 11 -550 -6z"/>
</g>
</svg>
